<mxfile host="app.diagrams.net" agent="Mozilla/5.0 (Windows NT 10.0; Win64; x64) AppleWebKit/537.36 (KHTML, like Gecko) Chrome/140.0.0.0 Safari/537.36" version="28.2.0">
  <diagram name="Página-1" id="iJfHRQVnBRbnl0wtBjf-">
    <mxGraphModel dx="3691" dy="2290" grid="1" gridSize="10" guides="1" tooltips="1" connect="1" arrows="1" fold="1" page="1" pageScale="1" pageWidth="827" pageHeight="1169" math="0" shadow="0">
      <root>
        <mxCell id="0" />
        <mxCell id="1" parent="0" />
        <mxCell id="5YB8JBH2bqorzOYy5yli-1" value="Usuario" style="swimlane;fontStyle=1;align=center;verticalAlign=top;childLayout=stackLayout;horizontal=1;startSize=26;horizontalStack=0;resizeParent=1;resizeParentMax=0;resizeLast=0;collapsible=1;marginBottom=0;whiteSpace=wrap;html=1;" parent="1" vertex="1">
          <mxGeometry x="70" y="20" width="170" height="180" as="geometry" />
        </mxCell>
        <mxCell id="5YB8JBH2bqorzOYy5yli-2" value="-id usuario: int&lt;div&gt;-Nombre : string&lt;/div&gt;&lt;div&gt;-email:string&lt;/div&gt;&lt;div&gt;-contraseña: String&lt;/div&gt;&lt;div&gt;-teléfono:int&lt;/div&gt;&lt;div&gt;-dirección:string&lt;/div&gt;" style="text;strokeColor=none;fillColor=none;align=left;verticalAlign=top;spacingLeft=4;spacingRight=4;overflow=hidden;rotatable=0;points=[[0,0.5],[1,0.5]];portConstraint=eastwest;whiteSpace=wrap;html=1;" parent="5YB8JBH2bqorzOYy5yli-1" vertex="1">
          <mxGeometry y="26" width="170" height="94" as="geometry" />
        </mxCell>
        <mxCell id="5YB8JBH2bqorzOYy5yli-3" value="" style="line;strokeWidth=1;fillColor=none;align=left;verticalAlign=middle;spacingTop=-1;spacingLeft=3;spacingRight=3;rotatable=0;labelPosition=right;points=[];portConstraint=eastwest;strokeColor=inherit;" parent="5YB8JBH2bqorzOYy5yli-1" vertex="1">
          <mxGeometry y="120" width="170" height="8" as="geometry" />
        </mxCell>
        <mxCell id="5YB8JBH2bqorzOYy5yli-4" value="+Registrar()&lt;div&gt;+IniciarSesión()&lt;/div&gt;&lt;div&gt;+Editar perfil()&lt;/div&gt;" style="text;strokeColor=none;fillColor=none;align=left;verticalAlign=top;spacingLeft=4;spacingRight=4;overflow=hidden;rotatable=0;points=[[0,0.5],[1,0.5]];portConstraint=eastwest;whiteSpace=wrap;html=1;" parent="5YB8JBH2bqorzOYy5yli-1" vertex="1">
          <mxGeometry y="128" width="170" height="52" as="geometry" />
        </mxCell>
        <mxCell id="LVgnrMWe8Is_c_3PkuOZ-48" style="edgeStyle=orthogonalEdgeStyle;rounded=0;orthogonalLoop=1;jettySize=auto;html=1;entryX=0.75;entryY=0;entryDx=0;entryDy=0;" edge="1" parent="1" target="LVgnrMWe8Is_c_3PkuOZ-26">
          <mxGeometry relative="1" as="geometry">
            <mxPoint x="630" y="30" as="sourcePoint" />
            <Array as="points">
              <mxPoint x="630" y="-20" />
              <mxPoint x="960" y="-20" />
            </Array>
          </mxGeometry>
        </mxCell>
        <mxCell id="LVgnrMWe8Is_c_3PkuOZ-49" value="1" style="edgeLabel;html=1;align=center;verticalAlign=middle;resizable=0;points=[];" vertex="1" connectable="0" parent="LVgnrMWe8Is_c_3PkuOZ-48">
          <mxGeometry x="-0.97" y="-1" relative="1" as="geometry">
            <mxPoint as="offset" />
          </mxGeometry>
        </mxCell>
        <mxCell id="LVgnrMWe8Is_c_3PkuOZ-50" value="N" style="edgeLabel;html=1;align=center;verticalAlign=middle;resizable=0;points=[];" vertex="1" connectable="0" parent="LVgnrMWe8Is_c_3PkuOZ-48">
          <mxGeometry x="0.91" y="1" relative="1" as="geometry">
            <mxPoint as="offset" />
          </mxGeometry>
        </mxCell>
        <mxCell id="LVgnrMWe8Is_c_3PkuOZ-1" value="Comprador" style="swimlane;fontStyle=1;align=center;verticalAlign=top;childLayout=stackLayout;horizontal=1;startSize=26;horizontalStack=0;resizeParent=1;resizeParentMax=0;resizeLast=0;collapsible=1;marginBottom=0;whiteSpace=wrap;html=1;" vertex="1" parent="1">
          <mxGeometry x="550" y="30" width="160" height="140" as="geometry" />
        </mxCell>
        <mxCell id="LVgnrMWe8Is_c_3PkuOZ-2" value="-historialCompras&lt;div&gt;-MetodosPago[]&lt;/div&gt;" style="text;strokeColor=none;fillColor=none;align=left;verticalAlign=top;spacingLeft=4;spacingRight=4;overflow=hidden;rotatable=0;points=[[0,0.5],[1,0.5]];portConstraint=eastwest;whiteSpace=wrap;html=1;" vertex="1" parent="LVgnrMWe8Is_c_3PkuOZ-1">
          <mxGeometry y="26" width="160" height="54" as="geometry" />
        </mxCell>
        <mxCell id="LVgnrMWe8Is_c_3PkuOZ-3" value="" style="line;strokeWidth=1;fillColor=none;align=left;verticalAlign=middle;spacingTop=-1;spacingLeft=3;spacingRight=3;rotatable=0;labelPosition=right;points=[];portConstraint=eastwest;strokeColor=inherit;" vertex="1" parent="LVgnrMWe8Is_c_3PkuOZ-1">
          <mxGeometry y="80" width="160" height="8" as="geometry" />
        </mxCell>
        <mxCell id="LVgnrMWe8Is_c_3PkuOZ-4" value="+AgregarAlCarrito()&lt;div&gt;&lt;div&gt;+RealizarPago()&lt;/div&gt;&lt;div&gt;+dejarReseña()&lt;br&gt;&lt;div&gt;&lt;br&gt;&lt;/div&gt;&lt;/div&gt;&lt;/div&gt;" style="text;strokeColor=none;fillColor=none;align=left;verticalAlign=top;spacingLeft=4;spacingRight=4;overflow=hidden;rotatable=0;points=[[0,0.5],[1,0.5]];portConstraint=eastwest;whiteSpace=wrap;html=1;" vertex="1" parent="LVgnrMWe8Is_c_3PkuOZ-1">
          <mxGeometry y="88" width="160" height="52" as="geometry" />
        </mxCell>
        <mxCell id="LVgnrMWe8Is_c_3PkuOZ-58" style="edgeStyle=orthogonalEdgeStyle;rounded=0;orthogonalLoop=1;jettySize=auto;html=1;exitX=0;exitY=0;exitDx=0;exitDy=0;entryX=0;entryY=0;entryDx=0;entryDy=0;" edge="1" parent="1" source="LVgnrMWe8Is_c_3PkuOZ-5" target="LVgnrMWe8Is_c_3PkuOZ-14">
          <mxGeometry relative="1" as="geometry">
            <Array as="points">
              <mxPoint x="310" y="-50" />
              <mxPoint x="40" y="-50" />
            </Array>
          </mxGeometry>
        </mxCell>
        <mxCell id="LVgnrMWe8Is_c_3PkuOZ-59" value="1" style="edgeLabel;html=1;align=center;verticalAlign=middle;resizable=0;points=[];" vertex="1" connectable="0" parent="LVgnrMWe8Is_c_3PkuOZ-58">
          <mxGeometry x="-0.955" y="3" relative="1" as="geometry">
            <mxPoint as="offset" />
          </mxGeometry>
        </mxCell>
        <mxCell id="LVgnrMWe8Is_c_3PkuOZ-60" value="M" style="edgeLabel;html=1;align=center;verticalAlign=middle;resizable=0;points=[];" vertex="1" connectable="0" parent="LVgnrMWe8Is_c_3PkuOZ-58">
          <mxGeometry x="0.9232" relative="1" as="geometry">
            <mxPoint as="offset" />
          </mxGeometry>
        </mxCell>
        <mxCell id="LVgnrMWe8Is_c_3PkuOZ-5" value="Vendedor" style="swimlane;fontStyle=1;align=center;verticalAlign=top;childLayout=stackLayout;horizontal=1;startSize=26;horizontalStack=0;resizeParent=1;resizeParentMax=0;resizeLast=0;collapsible=1;marginBottom=0;whiteSpace=wrap;html=1;" vertex="1" parent="1">
          <mxGeometry x="310" y="45" width="160" height="130" as="geometry" />
        </mxCell>
        <mxCell id="LVgnrMWe8Is_c_3PkuOZ-6" value="-HistorialVentas&lt;div&gt;-ProductosPublicados[ ]&lt;/div&gt;" style="text;strokeColor=none;fillColor=none;align=left;verticalAlign=top;spacingLeft=4;spacingRight=4;overflow=hidden;rotatable=0;points=[[0,0.5],[1,0.5]];portConstraint=eastwest;whiteSpace=wrap;html=1;" vertex="1" parent="LVgnrMWe8Is_c_3PkuOZ-5">
          <mxGeometry y="26" width="160" height="44" as="geometry" />
        </mxCell>
        <mxCell id="LVgnrMWe8Is_c_3PkuOZ-7" value="" style="line;strokeWidth=1;fillColor=none;align=left;verticalAlign=middle;spacingTop=-1;spacingLeft=3;spacingRight=3;rotatable=0;labelPosition=right;points=[];portConstraint=eastwest;strokeColor=inherit;" vertex="1" parent="LVgnrMWe8Is_c_3PkuOZ-5">
          <mxGeometry y="70" width="160" height="18" as="geometry" />
        </mxCell>
        <mxCell id="LVgnrMWe8Is_c_3PkuOZ-8" value="+PublicarProducto( )&lt;div&gt;+GestionarInventario( )&lt;/div&gt;" style="text;strokeColor=none;fillColor=none;align=left;verticalAlign=top;spacingLeft=4;spacingRight=4;overflow=hidden;rotatable=0;points=[[0,0.5],[1,0.5]];portConstraint=eastwest;whiteSpace=wrap;html=1;" vertex="1" parent="LVgnrMWe8Is_c_3PkuOZ-5">
          <mxGeometry y="88" width="160" height="42" as="geometry" />
        </mxCell>
        <mxCell id="LVgnrMWe8Is_c_3PkuOZ-14" value="Producto" style="swimlane;fontStyle=1;align=center;verticalAlign=top;childLayout=stackLayout;horizontal=1;startSize=26;horizontalStack=0;resizeParent=1;resizeParentMax=0;resizeLast=0;collapsible=1;marginBottom=0;whiteSpace=wrap;html=1;" vertex="1" parent="1">
          <mxGeometry x="40" y="340" width="160" height="190" as="geometry" />
        </mxCell>
        <mxCell id="LVgnrMWe8Is_c_3PkuOZ-15" value="-Id producto:int&lt;div&gt;-Nombre: string&lt;/div&gt;&lt;div&gt;-Descripcion: String&lt;/div&gt;&lt;div&gt;-precio: Float&lt;/div&gt;&lt;div&gt;-Categoria: string&lt;/div&gt;&lt;div&gt;-stock&lt;/div&gt;&lt;div&gt;-imagenes[ ]&lt;/div&gt;&lt;div&gt;&lt;br&gt;&lt;/div&gt;" style="text;strokeColor=none;fillColor=none;align=left;verticalAlign=top;spacingLeft=4;spacingRight=4;overflow=hidden;rotatable=0;points=[[0,0.5],[1,0.5]];portConstraint=eastwest;whiteSpace=wrap;html=1;" vertex="1" parent="LVgnrMWe8Is_c_3PkuOZ-14">
          <mxGeometry y="26" width="160" height="114" as="geometry" />
        </mxCell>
        <mxCell id="LVgnrMWe8Is_c_3PkuOZ-16" value="" style="line;strokeWidth=1;fillColor=none;align=left;verticalAlign=middle;spacingTop=-1;spacingLeft=3;spacingRight=3;rotatable=0;labelPosition=right;points=[];portConstraint=eastwest;strokeColor=inherit;" vertex="1" parent="LVgnrMWe8Is_c_3PkuOZ-14">
          <mxGeometry y="140" width="160" height="8" as="geometry" />
        </mxCell>
        <mxCell id="LVgnrMWe8Is_c_3PkuOZ-17" value="+ActualizarStock( )&lt;div&gt;+ValidarCertificación( )&lt;/div&gt;" style="text;strokeColor=none;fillColor=none;align=left;verticalAlign=top;spacingLeft=4;spacingRight=4;overflow=hidden;rotatable=0;points=[[0,0.5],[1,0.5]];portConstraint=eastwest;whiteSpace=wrap;html=1;" vertex="1" parent="LVgnrMWe8Is_c_3PkuOZ-14">
          <mxGeometry y="148" width="160" height="42" as="geometry" />
        </mxCell>
        <mxCell id="LVgnrMWe8Is_c_3PkuOZ-18" value="Categoria" style="swimlane;fontStyle=1;align=center;verticalAlign=top;childLayout=stackLayout;horizontal=1;startSize=26;horizontalStack=0;resizeParent=1;resizeParentMax=0;resizeLast=0;collapsible=1;marginBottom=0;whiteSpace=wrap;html=1;" vertex="1" parent="1">
          <mxGeometry x="10" y="710" width="160" height="88" as="geometry" />
        </mxCell>
        <mxCell id="LVgnrMWe8Is_c_3PkuOZ-19" value="-id Categoria:&lt;div&gt;-Nombre: string&lt;/div&gt;&lt;div&gt;-Descripcion: string&lt;/div&gt;" style="text;strokeColor=none;fillColor=none;align=left;verticalAlign=top;spacingLeft=4;spacingRight=4;overflow=hidden;rotatable=0;points=[[0,0.5],[1,0.5]];portConstraint=eastwest;whiteSpace=wrap;html=1;" vertex="1" parent="LVgnrMWe8Is_c_3PkuOZ-18">
          <mxGeometry y="26" width="160" height="54" as="geometry" />
        </mxCell>
        <mxCell id="LVgnrMWe8Is_c_3PkuOZ-20" value="" style="line;strokeWidth=1;fillColor=none;align=left;verticalAlign=middle;spacingTop=-1;spacingLeft=3;spacingRight=3;rotatable=0;labelPosition=right;points=[];portConstraint=eastwest;strokeColor=inherit;" vertex="1" parent="LVgnrMWe8Is_c_3PkuOZ-18">
          <mxGeometry y="80" width="160" height="8" as="geometry" />
        </mxCell>
        <mxCell id="LVgnrMWe8Is_c_3PkuOZ-45" style="edgeStyle=orthogonalEdgeStyle;rounded=0;orthogonalLoop=1;jettySize=auto;html=1;exitX=0;exitY=0;exitDx=0;exitDy=0;entryX=0.5;entryY=0;entryDx=0;entryDy=0;" edge="1" parent="1" source="LVgnrMWe8Is_c_3PkuOZ-22" target="LVgnrMWe8Is_c_3PkuOZ-14">
          <mxGeometry relative="1" as="geometry">
            <Array as="points">
              <mxPoint x="430" y="300" />
              <mxPoint x="120" y="300" />
            </Array>
          </mxGeometry>
        </mxCell>
        <mxCell id="LVgnrMWe8Is_c_3PkuOZ-46" value="N" style="edgeLabel;html=1;align=center;verticalAlign=middle;resizable=0;points=[];" vertex="1" connectable="0" parent="LVgnrMWe8Is_c_3PkuOZ-45">
          <mxGeometry x="-0.8927" relative="1" as="geometry">
            <mxPoint as="offset" />
          </mxGeometry>
        </mxCell>
        <mxCell id="LVgnrMWe8Is_c_3PkuOZ-47" value="M" style="edgeLabel;html=1;align=center;verticalAlign=middle;resizable=0;points=[];" vertex="1" connectable="0" parent="LVgnrMWe8Is_c_3PkuOZ-45">
          <mxGeometry x="0.8829" y="1" relative="1" as="geometry">
            <mxPoint as="offset" />
          </mxGeometry>
        </mxCell>
        <mxCell id="LVgnrMWe8Is_c_3PkuOZ-22" value="Carrito" style="swimlane;fontStyle=1;align=center;verticalAlign=top;childLayout=stackLayout;horizontal=1;startSize=26;horizontalStack=0;resizeParent=1;resizeParentMax=0;resizeLast=0;collapsible=1;marginBottom=0;whiteSpace=wrap;html=1;" vertex="1" parent="1">
          <mxGeometry x="430" y="360" width="160" height="150" as="geometry" />
        </mxCell>
        <mxCell id="LVgnrMWe8Is_c_3PkuOZ-23" value="-id carrito: int&lt;div&gt;-listaDeProductos[ ]&lt;/div&gt;&lt;div&gt;-total:float&lt;/div&gt;" style="text;strokeColor=none;fillColor=none;align=left;verticalAlign=top;spacingLeft=4;spacingRight=4;overflow=hidden;rotatable=0;points=[[0,0.5],[1,0.5]];portConstraint=eastwest;whiteSpace=wrap;html=1;" vertex="1" parent="LVgnrMWe8Is_c_3PkuOZ-22">
          <mxGeometry y="26" width="160" height="54" as="geometry" />
        </mxCell>
        <mxCell id="LVgnrMWe8Is_c_3PkuOZ-24" value="" style="line;strokeWidth=1;fillColor=none;align=left;verticalAlign=middle;spacingTop=-1;spacingLeft=3;spacingRight=3;rotatable=0;labelPosition=right;points=[];portConstraint=eastwest;strokeColor=inherit;" vertex="1" parent="LVgnrMWe8Is_c_3PkuOZ-22">
          <mxGeometry y="80" width="160" height="8" as="geometry" />
        </mxCell>
        <mxCell id="LVgnrMWe8Is_c_3PkuOZ-25" value="+AgregarProducto( )&lt;div&gt;+EliminarProducto( )&lt;/div&gt;&lt;div&gt;+CalcularTotal( )&lt;/div&gt;" style="text;strokeColor=none;fillColor=none;align=left;verticalAlign=top;spacingLeft=4;spacingRight=4;overflow=hidden;rotatable=0;points=[[0,0.5],[1,0.5]];portConstraint=eastwest;whiteSpace=wrap;html=1;" vertex="1" parent="LVgnrMWe8Is_c_3PkuOZ-22">
          <mxGeometry y="88" width="160" height="62" as="geometry" />
        </mxCell>
        <mxCell id="LVgnrMWe8Is_c_3PkuOZ-51" style="edgeStyle=orthogonalEdgeStyle;rounded=0;orthogonalLoop=1;jettySize=auto;html=1;exitX=0.25;exitY=0;exitDx=0;exitDy=0;entryX=0.5;entryY=0;entryDx=0;entryDy=0;" edge="1" parent="1" source="LVgnrMWe8Is_c_3PkuOZ-26" target="LVgnrMWe8Is_c_3PkuOZ-31">
          <mxGeometry relative="1" as="geometry">
            <Array as="points">
              <mxPoint x="880" y="320" />
              <mxPoint x="730" y="320" />
            </Array>
          </mxGeometry>
        </mxCell>
        <mxCell id="LVgnrMWe8Is_c_3PkuOZ-52" value="1" style="edgeLabel;html=1;align=center;verticalAlign=middle;resizable=0;points=[];" vertex="1" connectable="0" parent="LVgnrMWe8Is_c_3PkuOZ-51">
          <mxGeometry x="-0.808" y="-2" relative="1" as="geometry">
            <mxPoint as="offset" />
          </mxGeometry>
        </mxCell>
        <mxCell id="LVgnrMWe8Is_c_3PkuOZ-53" value="1" style="edgeLabel;html=1;align=center;verticalAlign=middle;resizable=0;points=[];" vertex="1" connectable="0" parent="LVgnrMWe8Is_c_3PkuOZ-51">
          <mxGeometry x="0.8" y="-3" relative="1" as="geometry">
            <mxPoint as="offset" />
          </mxGeometry>
        </mxCell>
        <mxCell id="LVgnrMWe8Is_c_3PkuOZ-26" value="Pedido&lt;span style=&quot;white-space: pre;&quot;&gt;&#x9;&lt;/span&gt;" style="swimlane;fontStyle=1;align=center;verticalAlign=top;childLayout=stackLayout;horizontal=1;startSize=26;horizontalStack=0;resizeParent=1;resizeParentMax=0;resizeLast=0;collapsible=1;marginBottom=0;whiteSpace=wrap;html=1;" vertex="1" parent="1">
          <mxGeometry x="840" y="370" width="160" height="160" as="geometry" />
        </mxCell>
        <mxCell id="LVgnrMWe8Is_c_3PkuOZ-27" value="-IdPedido: int&lt;div&gt;-Fecha: Date&lt;/div&gt;&lt;div&gt;-Estado: string&lt;/div&gt;&lt;div&gt;-ListaProductos[ ]&lt;/div&gt;&lt;div&gt;-Comprador&lt;/div&gt;" style="text;strokeColor=none;fillColor=none;align=left;verticalAlign=top;spacingLeft=4;spacingRight=4;overflow=hidden;rotatable=0;points=[[0,0.5],[1,0.5]];portConstraint=eastwest;whiteSpace=wrap;html=1;" vertex="1" parent="LVgnrMWe8Is_c_3PkuOZ-26">
          <mxGeometry y="26" width="160" height="84" as="geometry" />
        </mxCell>
        <mxCell id="LVgnrMWe8Is_c_3PkuOZ-28" value="" style="line;strokeWidth=1;fillColor=none;align=left;verticalAlign=middle;spacingTop=-1;spacingLeft=3;spacingRight=3;rotatable=0;labelPosition=right;points=[];portConstraint=eastwest;strokeColor=inherit;" vertex="1" parent="LVgnrMWe8Is_c_3PkuOZ-26">
          <mxGeometry y="110" width="160" height="8" as="geometry" />
        </mxCell>
        <mxCell id="LVgnrMWe8Is_c_3PkuOZ-29" value="+ConfirmarPedido( )&lt;div&gt;+CancelarPedido( )&lt;/div&gt;" style="text;strokeColor=none;fillColor=none;align=left;verticalAlign=top;spacingLeft=4;spacingRight=4;overflow=hidden;rotatable=0;points=[[0,0.5],[1,0.5]];portConstraint=eastwest;whiteSpace=wrap;html=1;" vertex="1" parent="LVgnrMWe8Is_c_3PkuOZ-26">
          <mxGeometry y="118" width="160" height="42" as="geometry" />
        </mxCell>
        <mxCell id="LVgnrMWe8Is_c_3PkuOZ-31" value="Pago" style="swimlane;fontStyle=1;align=center;verticalAlign=top;childLayout=stackLayout;horizontal=1;startSize=26;horizontalStack=0;resizeParent=1;resizeParentMax=0;resizeLast=0;collapsible=1;marginBottom=0;whiteSpace=wrap;html=1;" vertex="1" parent="1">
          <mxGeometry x="650" y="370" width="160" height="160" as="geometry" />
        </mxCell>
        <mxCell id="LVgnrMWe8Is_c_3PkuOZ-32" value="-idPago: int&lt;div&gt;-monto&lt;/div&gt;&lt;div&gt;-Fecha:date&lt;/div&gt;&lt;div&gt;-MetodoPago&lt;/div&gt;&lt;div&gt;-Estado&lt;/div&gt;" style="text;strokeColor=none;fillColor=none;align=left;verticalAlign=top;spacingLeft=4;spacingRight=4;overflow=hidden;rotatable=0;points=[[0,0.5],[1,0.5]];portConstraint=eastwest;whiteSpace=wrap;html=1;" vertex="1" parent="LVgnrMWe8Is_c_3PkuOZ-31">
          <mxGeometry y="26" width="160" height="84" as="geometry" />
        </mxCell>
        <mxCell id="LVgnrMWe8Is_c_3PkuOZ-33" value="" style="line;strokeWidth=1;fillColor=none;align=left;verticalAlign=middle;spacingTop=-1;spacingLeft=3;spacingRight=3;rotatable=0;labelPosition=right;points=[];portConstraint=eastwest;strokeColor=inherit;" vertex="1" parent="LVgnrMWe8Is_c_3PkuOZ-31">
          <mxGeometry y="110" width="160" height="8" as="geometry" />
        </mxCell>
        <mxCell id="LVgnrMWe8Is_c_3PkuOZ-34" value="+ProcesarPago( )&lt;div&gt;+VerificarPago( )&lt;/div&gt;" style="text;strokeColor=none;fillColor=none;align=left;verticalAlign=top;spacingLeft=4;spacingRight=4;overflow=hidden;rotatable=0;points=[[0,0.5],[1,0.5]];portConstraint=eastwest;whiteSpace=wrap;html=1;" vertex="1" parent="LVgnrMWe8Is_c_3PkuOZ-31">
          <mxGeometry y="118" width="160" height="42" as="geometry" />
        </mxCell>
        <mxCell id="LVgnrMWe8Is_c_3PkuOZ-35" value="Reseña" style="swimlane;fontStyle=1;align=center;verticalAlign=top;childLayout=stackLayout;horizontal=1;startSize=26;horizontalStack=0;resizeParent=1;resizeParentMax=0;resizeLast=0;collapsible=1;marginBottom=0;whiteSpace=wrap;html=1;" vertex="1" parent="1">
          <mxGeometry x="260" y="654" width="160" height="144" as="geometry" />
        </mxCell>
        <mxCell id="LVgnrMWe8Is_c_3PkuOZ-36" value="-Id Reseña:int&lt;div&gt;-Comentario: string&lt;/div&gt;&lt;div&gt;-Calificación : float&lt;/div&gt;&lt;div&gt;-Fecha: date&lt;/div&gt;&lt;div&gt;-Comprador&lt;/div&gt;" style="text;strokeColor=none;fillColor=none;align=left;verticalAlign=top;spacingLeft=4;spacingRight=4;overflow=hidden;rotatable=0;points=[[0,0.5],[1,0.5]];portConstraint=eastwest;whiteSpace=wrap;html=1;" vertex="1" parent="LVgnrMWe8Is_c_3PkuOZ-35">
          <mxGeometry y="26" width="160" height="84" as="geometry" />
        </mxCell>
        <mxCell id="LVgnrMWe8Is_c_3PkuOZ-37" value="" style="line;strokeWidth=1;fillColor=none;align=left;verticalAlign=middle;spacingTop=-1;spacingLeft=3;spacingRight=3;rotatable=0;labelPosition=right;points=[];portConstraint=eastwest;strokeColor=inherit;" vertex="1" parent="LVgnrMWe8Is_c_3PkuOZ-35">
          <mxGeometry y="110" width="160" height="8" as="geometry" />
        </mxCell>
        <mxCell id="LVgnrMWe8Is_c_3PkuOZ-38" value="+EditarReseña( )" style="text;strokeColor=none;fillColor=none;align=left;verticalAlign=top;spacingLeft=4;spacingRight=4;overflow=hidden;rotatable=0;points=[[0,0.5],[1,0.5]];portConstraint=eastwest;whiteSpace=wrap;html=1;" vertex="1" parent="LVgnrMWe8Is_c_3PkuOZ-35">
          <mxGeometry y="118" width="160" height="26" as="geometry" />
        </mxCell>
        <mxCell id="LVgnrMWe8Is_c_3PkuOZ-41" style="edgeStyle=orthogonalEdgeStyle;rounded=0;orthogonalLoop=1;jettySize=auto;html=1;exitX=1;exitY=0.5;exitDx=0;exitDy=0;" edge="1" parent="1" source="LVgnrMWe8Is_c_3PkuOZ-2" target="LVgnrMWe8Is_c_3PkuOZ-22">
          <mxGeometry relative="1" as="geometry" />
        </mxCell>
        <mxCell id="LVgnrMWe8Is_c_3PkuOZ-42" value="1" style="edgeLabel;html=1;align=center;verticalAlign=middle;resizable=0;points=[];" vertex="1" connectable="0" parent="LVgnrMWe8Is_c_3PkuOZ-41">
          <mxGeometry x="-0.9038" y="-1" relative="1" as="geometry">
            <mxPoint as="offset" />
          </mxGeometry>
        </mxCell>
        <mxCell id="LVgnrMWe8Is_c_3PkuOZ-43" value="1" style="edgeLabel;html=1;align=center;verticalAlign=middle;resizable=0;points=[];" vertex="1" connectable="0" parent="LVgnrMWe8Is_c_3PkuOZ-41">
          <mxGeometry x="0.7663" y="-1" relative="1" as="geometry">
            <mxPoint as="offset" />
          </mxGeometry>
        </mxCell>
        <mxCell id="LVgnrMWe8Is_c_3PkuOZ-54" style="edgeStyle=orthogonalEdgeStyle;rounded=0;orthogonalLoop=1;jettySize=auto;html=1;exitX=1.006;exitY=0.094;exitDx=0;exitDy=0;entryX=0.413;entryY=1.071;entryDx=0;entryDy=0;entryPerimeter=0;exitPerimeter=0;" edge="1" parent="1" source="LVgnrMWe8Is_c_3PkuOZ-26" target="LVgnrMWe8Is_c_3PkuOZ-17">
          <mxGeometry relative="1" as="geometry">
            <Array as="points">
              <mxPoint x="1020" y="385" />
              <mxPoint x="1020" y="580" />
              <mxPoint x="106" y="580" />
            </Array>
          </mxGeometry>
        </mxCell>
        <mxCell id="LVgnrMWe8Is_c_3PkuOZ-55" value="N" style="edgeLabel;html=1;align=center;verticalAlign=middle;resizable=0;points=[];" vertex="1" connectable="0" parent="LVgnrMWe8Is_c_3PkuOZ-54">
          <mxGeometry x="-0.8973" y="-3" relative="1" as="geometry">
            <mxPoint as="offset" />
          </mxGeometry>
        </mxCell>
        <mxCell id="LVgnrMWe8Is_c_3PkuOZ-56" value="M" style="edgeLabel;html=1;align=center;verticalAlign=middle;resizable=0;points=[];" vertex="1" connectable="0" parent="LVgnrMWe8Is_c_3PkuOZ-54">
          <mxGeometry x="0.9562" relative="1" as="geometry">
            <mxPoint as="offset" />
          </mxGeometry>
        </mxCell>
        <mxCell id="LVgnrMWe8Is_c_3PkuOZ-61" style="edgeStyle=orthogonalEdgeStyle;rounded=0;orthogonalLoop=1;jettySize=auto;html=1;exitX=0;exitY=0.5;exitDx=0;exitDy=0;" edge="1" parent="1" source="LVgnrMWe8Is_c_3PkuOZ-17" target="LVgnrMWe8Is_c_3PkuOZ-18">
          <mxGeometry relative="1" as="geometry">
            <Array as="points">
              <mxPoint x="40" y="660" />
              <mxPoint x="40" y="660" />
            </Array>
          </mxGeometry>
        </mxCell>
        <mxCell id="LVgnrMWe8Is_c_3PkuOZ-62" value="N" style="edgeLabel;html=1;align=center;verticalAlign=middle;resizable=0;points=[];" vertex="1" connectable="0" parent="LVgnrMWe8Is_c_3PkuOZ-61">
          <mxGeometry x="-0.6318" relative="1" as="geometry">
            <mxPoint as="offset" />
          </mxGeometry>
        </mxCell>
        <mxCell id="LVgnrMWe8Is_c_3PkuOZ-63" value="1" style="edgeLabel;html=1;align=center;verticalAlign=middle;resizable=0;points=[];" vertex="1" connectable="0" parent="LVgnrMWe8Is_c_3PkuOZ-61">
          <mxGeometry x="0.7313" y="-3" relative="1" as="geometry">
            <mxPoint as="offset" />
          </mxGeometry>
        </mxCell>
        <mxCell id="LVgnrMWe8Is_c_3PkuOZ-64" style="edgeStyle=orthogonalEdgeStyle;rounded=0;orthogonalLoop=1;jettySize=auto;html=1;exitX=0.256;exitY=1.048;exitDx=0;exitDy=0;exitPerimeter=0;entryX=0;entryY=0;entryDx=0;entryDy=0;entryPerimeter=0;" edge="1" parent="1">
          <mxGeometry relative="1" as="geometry">
            <mxPoint x="80.96000000000004" y="531.0160000000001" as="sourcePoint" />
            <mxPoint x="260" y="679" as="targetPoint" />
            <Array as="points">
              <mxPoint x="81" y="669" />
              <mxPoint x="90" y="669" />
              <mxPoint x="90" y="679" />
            </Array>
          </mxGeometry>
        </mxCell>
        <mxCell id="LVgnrMWe8Is_c_3PkuOZ-68" value="1" style="edgeLabel;html=1;align=center;verticalAlign=middle;resizable=0;points=[];" vertex="1" connectable="0" parent="LVgnrMWe8Is_c_3PkuOZ-64">
          <mxGeometry x="-0.6698" y="-3" relative="1" as="geometry">
            <mxPoint as="offset" />
          </mxGeometry>
        </mxCell>
        <mxCell id="LVgnrMWe8Is_c_3PkuOZ-69" value="N" style="edgeLabel;html=1;align=center;verticalAlign=middle;resizable=0;points=[];" vertex="1" connectable="0" parent="LVgnrMWe8Is_c_3PkuOZ-64">
          <mxGeometry x="0.7798" y="-1" relative="1" as="geometry">
            <mxPoint as="offset" />
          </mxGeometry>
        </mxCell>
        <mxCell id="LVgnrMWe8Is_c_3PkuOZ-70" value="package" style="shape=folder;fontStyle=1;spacingTop=10;tabWidth=40;tabHeight=14;tabPosition=left;html=1;whiteSpace=wrap;" vertex="1" parent="1">
          <mxGeometry x="-1280" y="460" width="70" height="50" as="geometry" />
        </mxCell>
      </root>
    </mxGraphModel>
  </diagram>
</mxfile>
